<?xml version="1.0" standalone="no"?>
<!DOCTYPE svg PUBLIC "-//W3C//DTD SVG 20010904//EN"
 "http://www.w3.org/TR/2001/REC-SVG-20010904/DTD/svg10.dtd">
<svg version="1.0" xmlns="http://www.w3.org/2000/svg"
 width="450.000000pt" height="450.000000pt" viewBox="0 0 450.000000 450.000000"
 preserveAspectRatio="xMidYMid meet">

<g transform="translate(0.000000,450.000000) scale(0.100000,-0.100000)"
fill="#000000" stroke="none">
<path d="M1927 3723 c-4 -3 -7 -44 -7 -90 l0 -83 -200 0 c-234 0 -220 8 -220
-124 l0 -86 -169 0 c-128 0 -171 -3 -180 -13 -7 -9 -12 -90 -13 -228 l-3 -214
-60 -5 c-59 -5 -60 -6 -60 -35 0 -29 1 -30 60 -35 l60 -5 0 -175 0 -175 -60
-5 c-59 -5 -60 -6 -60 -35 0 -29 1 -30 60 -35 l60 -5 3 -177 2 -177 -56 -3
c-41 -2 -60 -8 -68 -20 -20 -33 4 -53 68 -56 l56 -3 0 -184 0 -184 -56 -3
c-41 -2 -60 -8 -68 -20 -20 -33 4 -53 67 -56 l57 -3 2 -222 3 -222 875 0 875
0 3 108 3 107 132 0 c90 0 137 4 145 12 8 8 12 46 12 105 l0 93 139 0 c104 0
141 3 150 14 8 10 10 312 9 1127 l-3 1114 -776 3 c-426 1 -779 -1 -782 -5z
m1493 -1123 l0 -1051 -112 3 -113 3 -3 989 c-2 777 -5 992 -15 998 -6 4 -276
8 -599 8 l-588 0 0 50 0 50 715 0 715 0 0 -1050z m-300 -195 l0 -1065 -110 0
-110 0 0 759 0 759 -24 19 c-13 10 -111 92 -217 183 -107 91 -224 191 -262
223 l-67 57 -375 0 -375 0 0 65 0 65 770 0 770 0 0 -1065z m-840 641 c0 -118
3 -221 6 -230 5 -14 27 -16 138 -16 73 0 194 -3 269 -7 l137 -6 -2 -836 -3
-836 -805 0 -805 0 -3 188 -2 187 48 0 c42 0 51 -4 71 -31 75 -101 231 -51
231 73 0 75 -74 136 -150 124 -24 -3 -46 -17 -72 -46 -34 -38 -40 -41 -80 -38
l-43 3 0 180 0 180 42 3 c39 3 46 -1 81 -37 46 -48 82 -59 136 -40 108 38 114
192 9 235 -53 23 -100 11 -146 -37 -34 -36 -42 -40 -80 -37 l-42 3 0 175 0
175 45 3 c41 3 47 0 63 -28 23 -38 65 -60 117 -60 32 0 48 7 78 34 34 32 37
38 37 91 0 53 -3 59 -37 91 -30 27 -46 34 -78 34 -52 0 -94 -22 -117 -60 -16
-28 -22 -31 -63 -28 l-45 3 0 175 0 175 45 3 c41 3 47 0 63 -28 23 -38 65 -60
117 -60 32 0 48 7 78 34 34 32 37 38 37 91 0 53 -3 59 -37 91 -30 27 -46 34
-78 34 -52 0 -94 -22 -117 -60 -16 -28 -22 -31 -63 -28 l-45 3 -3 175 c-1 96
0 180 2 187 4 10 113 13 536 13 l530 0 0 -214z m314 -31 c85 -71 155 -133 155
-137 1 -5 -87 -8 -194 -8 l-195 0 0 171 0 171 40 -34 c22 -18 109 -91 194
-163z m-1116 -167 c4 -31 -29 -62 -57 -53 -46 14 -51 78 -8 95 29 11 61 -10
65 -42z m0 -431 c4 -34 -37 -64 -66 -48 -39 21 -38 75 1 91 29 11 61 -10 65
-43z m-10 -399 c7 -7 12 -24 12 -38 0 -48 -45 -67 -82 -33 -22 20 -23 41 -1
65 18 21 53 24 71 6z m1 -452 c38 -46 -25 -111 -69 -71 -24 22 -25 42 -3 67
19 22 56 24 72 4z"/>
<path d="M1783 2563 c-16 -6 -17 -45 -1 -61 16 -16 829 -17 859 -2 21 12 25
40 7 58 -9 9 -118 12 -433 11 -231 0 -426 -3 -432 -6z"/>
<path d="M1777 2323 c-14 -13 -6 -53 12 -63 13 -6 165 -10 426 -10 261 0 413
4 426 10 21 12 25 40 7 58 -9 9 -120 12 -438 12 -235 0 -430 -3 -433 -7z"/>
<path d="M1774 2066 c-3 -8 -4 -23 -2 -33 3 -17 27 -18 443 -18 l440 0 0 30 0
30 -438 3 c-375 2 -438 0 -443 -12z"/>
<path d="M2174 1666 c-54 -75 -102 -136 -106 -136 -4 0 -26 27 -50 60 -61 87
-73 84 -142 -38 -31 -54 -56 -105 -56 -113 0 -9 51 -69 113 -134 103 -107 115
-117 135 -106 11 6 126 131 254 277 180 205 233 271 233 292 l0 27 -141 3
-140 3 -100 -135z m229 20 c-15 -18 -100 -115 -187 -214 l-160 -182 -24 23
c-13 12 -46 48 -74 79 l-49 57 21 41 c12 23 25 40 29 38 5 -2 27 -27 50 -55
24 -31 49 -53 60 -53 13 0 55 48 130 150 l111 150 61 0 60 0 -28 -34z"/>
</g>
</svg>
